<?xml version="1.0" encoding="UTF-8"?>
<svg xmlns="http://www.w3.org/2000/svg" viewBox="0 0 64 64">
  <!-- Kemik - Bone Strength Icon -->
  <g transform="translate(12, 6)">
    <!-- Bone shape -->
    <path d="M12 8 Q4 8 4 16 Q4 22 10 22 L10 38 Q4 38 4 44 Q4 52 12 52 Q18 52 18 46 L22 46 Q22 52 28 52 Q36 52 36 44 Q36 38 30 38 L30 22 Q36 22 36 16 Q36 8 28 8 Q22 8 22 14 L18 14 Q18 8 12 8" 
          fill="none" stroke="#C4956A" stroke-width="2.5"/>
    <!-- Strength symbol in center -->
    <circle cx="20" cy="30" r="6" fill="none" stroke="#6B8E5A" stroke-width="2"/>
    <path d="M17 30 L20 27 L23 30 L20 33 Z" fill="#6B8E5A"/>
  </g>
</svg>
